<svg id="Ebene_1" data-name="Ebene 1" xmlns="http://www.w3.org/2000/svg" xmlns:xlink="http://www.w3.org/1999/xlink" viewBox="0 0 249.74 271.37"><defs><style>.cls-1{fill:url(#Unbenannter_Verlauf_4);}.cls-2{fill:url(#Unbenannter_Verlauf_4-2);}.cls-3{fill:url(#Unbenannter_Verlauf_5);}.cls-4{fill:#a1e2ae;}.cls-5{fill:url(#Unbenannter_Verlauf_3);}.cls-6{fill:#498e59;}.cls-7{fill:#534741;}.cls-8{fill:#5ba869;opacity:0.2;}.cls-9{fill:url(#Unbenannter_Verlauf_7);}.cls-10,.cls-11{fill:#c7b299;}.cls-10{opacity:0.3;}.cls-11{opacity:0.1;}.cls-12{fill:#736357;}.cls-13{opacity:0.6;fill:url(#Unbenannter_Verlauf_4-3);}.cls-14{fill:#3d3531;}.cls-15{fill:#c4f8d0;opacity:0.4;}.cls-16{fill:#22b573;}</style><linearGradient id="Unbenannter_Verlauf_4" x1="59" y1="220.37" x2="111.93" y2="212.18" gradientUnits="userSpaceOnUse"><stop offset="0" stop-color="#333"/><stop offset="0.45" stop-color="#4e4742"/><stop offset="1" stop-color="#736357"/></linearGradient><linearGradient id="Unbenannter_Verlauf_4-2" x1="159.17" y1="222.98" x2="212.1" y2="214.79" xlink:href="#Unbenannter_Verlauf_4"/><linearGradient id="Unbenannter_Verlauf_5" x1="185.96" y1="138.27" x2="100.1" y2="96.86" gradientUnits="userSpaceOnUse"><stop offset="0" stop-color="#22b573"/><stop offset="0.67" stop-color="#31b559"/><stop offset="1" stop-color="#39b54a"/></linearGradient><linearGradient id="Unbenannter_Verlauf_3" x1="303.51" y1="105.75" x2="223.74" y2="153.25" gradientUnits="userSpaceOnUse"><stop offset="0" stop-color="#22b573"/><stop offset="0.57" stop-color="#169b5c"/><stop offset="1" stop-color="#0c8448"/></linearGradient><linearGradient id="Unbenannter_Verlauf_7" x1="95.15" y1="317.75" x2="283.22" y2="290.36" gradientUnits="userSpaceOnUse"><stop offset="0" stop-color="#534741"/><stop offset="1" stop-color="#736357"/></linearGradient><linearGradient id="Unbenannter_Verlauf_4-3" x1="132.29" y1="329.49" x2="285.65" y2="305.75" xlink:href="#Unbenannter_Verlauf_4"/></defs><title>appicon</title><ellipse class="cls-1" cx="80.35" cy="217.06" rx="30.05" ry="26.13"/><ellipse class="cls-2" cx="180.52" cy="219.68" rx="30.05" ry="26.13"/><path class="cls-3" d="M206.93,155.75a107.79,107.79,0,0,0-12.19-30.18c-4.93-8.31-11.84-19.93-25.05-28.53-19.8-12.91-41.24-10.88-51.5-9.9a99.56,99.56,0,0,0-43.76,15.15l-.09.6,5.46,4.69,44.46,33.83,43.59,22.08L203,161.84Z" transform="translate(-74.26 -71.63)"/><path class="cls-4" d="M200.87,160a84.27,84.27,0,0,1-20,9.12A79,79,0,0,1,144.12,172a76.1,76.1,0,0,1-40-20.48c-20.72-20-29.57-44.32-29.86-48.24-.25-3.4,11.29,8.49,37.85,24.47a266.08,266.08,0,0,0,33.75,17.46,224.2,224.2,0,0,0,51.63,14.76" transform="translate(-74.26 -71.63)"/><path class="cls-5" d="M201.45,156.83a110,110,0,0,0,32.31,7.61c9.84.78,23.58,1.87,38.53-4.07,22.41-8.9,33.34-28,38.58-37.09A101.43,101.43,0,0,0,324,77.9l-.45-.43-7.12,1.8L262.07,96.38,218,119.71,198.7,150Z" transform="translate(-74.26 -71.63)"/><path class="cls-4" d="M201.46,149.26a85.89,85.89,0,0,1,4.16-22A80.65,80.65,0,0,1,224.92,95a77.61,77.61,0,0,1,40.62-21.27c28.9-5.46,54.34,1.45,57.77,3.52,3,1.8-13.72,4.42-42.67,17.14a270.53,270.53,0,0,0-34.42,17.83,228.94,228.94,0,0,0-42.7,34.33" transform="translate(-74.26 -71.63)"/><path class="cls-6" d="M208.11,192.9c1-24-.36-36.06,0-38.33a43.51,43.51,0,0,0,.07-16.57,42.16,42.16,0,0,0-7.84-17v-.46a1.55,1.55,0,0,1-.08.23c0-.06,0-.13-.07-.2V121a45.48,45.48,0,0,0-7.69,17.86,46.15,46.15,0,0,0,0,15.68c.47,3.37-1,15,0,38.32.62,14.57-.3,35.77-7.84,62.72v.88h15.53v0H216v-.87C208.41,228.67,207.49,207.47,208.11,192.9Z" transform="translate(-74.26 -71.63)"/><path class="cls-7" d="M189.3,283.32" transform="translate(-74.26 -71.63)"/><path class="cls-8" d="M207.72,197.34c.73-24.05-.26-36.11,0-38.37a60.84,60.84,0,0,0,.05-16.6,50.75,50.75,0,0,0-5.64-17v-.46c0,.07,0,.15,0,.23a1.94,1.94,0,0,1-.05-.2v.4a55.33,55.33,0,0,0-5.53,17.88,63.43,63.43,0,0,0,0,15.7c.33,3.37-.71,15.06,0,38.37a274.68,274.68,0,0,1-5.64,62.8V261H202v0h11.38v-.88A271.81,271.81,0,0,1,207.72,197.34Z" transform="translate(-74.26 -71.63)"/><path class="cls-9" d="M269.16,273.28a76.18,76.18,0,0,0-12.35,1.06c-12.84-13.06-36-21.36-54.48-22.25a68.19,68.19,0,0,0-54.68,22.39,73.69,73.69,0,0,0-17.1-1.92c-28.38.09-51.33,15.77-51.25,35,.08,18.64,21.71,33.79,48.86,34.65h.9c.59,0,1.18,0,1.78,0l.9,0,129.36.3a76.24,76.24,0,0,0,8.35.44c28.39-.09,51.33-15.78,51.25-35S297.55,273.19,269.16,273.28Z" transform="translate(-74.26 -71.63)"/><ellipse class="cls-10" cx="218.18" cy="246.23" rx="8.46" ry="7.75"/><ellipse class="cls-11" cx="94.36" cy="207.07" rx="11.16" ry="9.93"/><ellipse class="cls-12" cx="156.57" cy="210.71" rx="8.71" ry="7.75"/><path class="cls-13" d="M275.45,342.88a26.45,26.45,0,0,0,7.09-17.32c.26-16.75-16.39-30.54-37.21-30.8A44.58,44.58,0,0,0,225.51,299c-7.84-7.34-19.72-12.1-33.08-12.27-11.89-.14-22.71,3.37-30.64,9.17a45.1,45.1,0,0,0-16.6-3.32c-20.81-.26-37.9,13.11-38.16,29.86a26.48,26.48,0,0,0,7,18" transform="translate(-74.26 -71.63)"/><path class="cls-14" d="M154.18,223.36" transform="translate(-74.26 -71.63)"/><path class="cls-14" d="M152.43,223.36" transform="translate(-74.26 -71.63)"/><ellipse class="cls-15" cx="254.79" cy="90.08" rx="24.83" ry="8.71" transform="translate(-89.47 30.07) rotate(-21.94)"/><path class="cls-4" d="M239.54,157.16c1.67,3.56,17.62.76,29.62-4.36,25.57-10.91,41.9-36.08,39.2-39.2-1.23-1.41-6.67,1.41-8.71,2.62-9,5.28-8,12.15-13.94,18.29-10.68,11-26.07,1.6-40.94,14.81C243.37,150.56,238.49,154.9,239.54,157.16Z" transform="translate(-74.26 -71.63)"/><path class="cls-16" d="M98.42,124.06c1.69-1.53,8.16,6.35,20.91,13.06,13.8,7.27,23.33,7.06,25.26,13.94,0,.17,1.15,4.28-.87,6.1-2.82,2.53-11.21-2.34-27.87-12.2-5.7-3.36-10.94-6.66-14.81-13.06C100.63,131.23,97.05,125.3,98.42,124.06Z" transform="translate(-74.26 -71.63)"/></svg>